<svg width="23" height="23" viewBox="0 0 23 23" version="1.1" xmlns="http://www.w3.org/2000/svg" xmlns:xlink="http://www.w3.org/1999/xlink" xmlns:figma="http://www.figma.com/figma/ns">
<title>sweep</title>
<desc>Created using Figma</desc>
<g id="Canvas" transform="translate(-46 -336)" figma:type="canvas">
<g id="sweep" style="mix-blend-mode:normal;" figma:type="vector">
<use xlink:href="#path0_fill" transform="translate(46 336)" fill="#3F3F3F" style="mix-blend-mode:normal;"/>
</g>
</g>
<defs>
<path id="path0_fill" d="M 22.6019 0.39804C 22.0713 -0.132705 21.2108 -0.132705 20.6799 0.398192L 13.2819 7.79624L 11.9485 6.46293C 11.5043 6.01872 10.784 6.01872 10.3397 6.46293L 9.53775 7.26489C 7.59641 7.72753 5.65515 8.19017 3.71382 8.65304L 0.611717 9.39258C 0.351957 9.45446 0.140509 9.64248 0.0486642 9.89321C -0.0432567 10.1439 -0.00336365 10.424 0.154843 10.6391C 3.58792 15.3055 7.69463 19.4122 12.3609 22.8451C 12.4997 22.9472 12.6655 23 12.8329 23C 12.9252 23 13.0179 22.984 13.1069 22.9514C 13.3576 22.8595 13.5456 22.648 13.6075 22.3883L 14.5338 18.5025C 14.9343 16.8224 15.3348 15.1423 15.735 13.4622L 16.537 12.6602C 16.9812 12.216 16.9812 11.4957 16.537 11.0514L 15.2038 9.71817L 22.6019 2.32004C 23.1328 1.78914 23.1326 0.928634 22.6019 0.39804ZM 12.3401 20.8363C 11.6927 20.3381 11.0578 19.8251 10.4339 19.2999L 11.483 16.3435L 9.40973 18.4166C 8.66329 17.7566 7.9355 17.0766 7.226 16.3779L 8.26777 14.732L 6.61683 15.7687C 5.96732 15.1089 5.33419 14.433 4.71805 13.7412L 6.79931 11.66L 3.82485 12.7155C 3.25558 12.044 2.70148 11.3589 2.16353 10.6599L 9.25501 8.96953L 14.0303 13.7449L 12.3401 20.8363Z"/>
</defs>
</svg>
